<svg width="197" height="30" viewBox="0 0 197 30" fill="none" xmlns="http://www.w3.org/2000/svg">
<path d="M8.87513e-05 29.0909V-2.86102e-05H11.4774C13.6743 -2.86102e-05 15.5493 0.392964 17.1024 1.17895C18.6649 1.95546 19.8533 3.05868 20.6677 4.48861C21.4916 5.90906 21.9035 7.58046 21.9035 9.50281C21.9035 11.4346 21.4868 13.0966 20.6535 14.4886C19.8202 15.8712 18.6128 16.9318 17.0313 17.6704C15.4594 18.4091 13.556 18.7784 11.3211 18.7784H3.63645V13.8352H10.3268C11.501 13.8352 12.4764 13.6742 13.2529 13.3522C14.0294 13.0303 14.6071 12.5473 14.9859 11.9034C15.3741 11.2594 15.5683 10.4593 15.5683 9.50281C15.5683 8.5369 15.3741 7.72251 14.9859 7.05963C14.6071 6.39675 14.0247 5.89486 13.2387 5.55395C12.4622 5.20357 11.4821 5.02838 10.2984 5.02838H6.15066V29.0909H8.87513e-05ZM15.7103 15.8522L22.9404 29.0909H16.1507L9.07679 15.8522H15.7103ZM35.6428 29.517C33.4364 29.517 31.5283 29.0483 29.9184 28.1108C28.318 27.1638 27.0822 25.8475 26.211 24.1619C25.3398 22.4668 24.9042 20.5019 24.9042 18.267C24.9042 16.0132 25.3398 14.0435 26.211 12.3579C27.0822 10.6629 28.318 9.34656 29.9184 8.40906C31.5283 7.46209 33.4364 6.98861 35.6428 6.98861C37.8493 6.98861 39.7527 7.46209 41.3531 8.40906C42.9629 9.34656 44.2035 10.6629 45.0747 12.3579C45.9459 14.0435 46.3815 16.0132 46.3815 18.267C46.3815 20.5019 45.9459 22.4668 45.0747 24.1619C44.2035 25.8475 42.9629 27.1638 41.3531 28.1108C39.7527 29.0483 37.8493 29.517 35.6428 29.517ZM35.6713 24.8295C36.675 24.8295 37.5131 24.5454 38.1855 23.9772C38.8578 23.3996 39.3644 22.6136 39.7053 21.6193C40.0557 20.625 40.2309 19.4933 40.2309 18.2244C40.2309 16.9555 40.0557 15.8238 39.7053 14.8295C39.3644 13.8352 38.8578 13.0492 38.1855 12.4716C37.5131 11.8939 36.675 11.6051 35.6713 11.6051C34.658 11.6051 33.8057 11.8939 33.1144 12.4716C32.4326 13.0492 31.9165 13.8352 31.5661 14.8295C31.2252 15.8238 31.0548 16.9555 31.0548 18.2244C31.0548 19.4933 31.2252 20.625 31.5661 21.6193C31.9165 22.6136 32.4326 23.3996 33.1144 23.9772C33.8057 24.5454 34.658 24.8295 35.6713 24.8295ZM56.3673 16.4772V29.0909H50.3161V7.2727H56.0832V11.1221H56.3389C56.8218 9.85319 57.6315 8.8494 58.7678 8.11077C59.9042 7.36266 61.282 6.98861 62.9014 6.98861C64.4165 6.98861 65.7375 7.32005 66.8644 7.98293C67.9913 8.6458 68.8673 9.59277 69.4923 10.8238C70.1173 12.0454 70.4298 13.5038 70.4298 15.1988V29.0909H64.3786V16.2784C64.3881 14.9432 64.0472 13.9015 63.3559 13.1534C62.6646 12.3958 61.7129 12.017 60.5008 12.017C59.6864 12.017 58.9667 12.1922 58.3417 12.5426C57.7262 12.893 57.2432 13.4043 56.8928 14.0767C56.5519 14.7396 56.3767 15.5397 56.3673 16.4772ZM81.4205 29.5028C80.0285 29.5028 78.788 29.2613 77.699 28.7784C76.6099 28.286 75.7482 27.5615 75.1137 26.6051C74.4887 25.6392 74.1762 24.4365 74.1762 22.9971C74.1762 21.785 74.3988 20.767 74.8438 19.9432C75.2889 19.1193 75.895 18.4564 76.662 17.9545C77.4291 17.4526 78.3003 17.0738 79.2757 16.8182C80.2605 16.5625 81.2927 16.3825 82.3722 16.2784C83.6412 16.1458 84.6639 16.0227 85.4404 15.9091C86.2169 15.786 86.7804 15.606 87.1308 15.3693C87.4812 15.1325 87.6563 14.7822 87.6563 14.3182V14.2329C87.6563 13.3333 87.3722 12.6373 86.8041 12.1449C86.2454 11.6524 85.4499 11.4062 84.4177 11.4062C83.3287 11.4062 82.4622 11.6477 81.8183 12.1307C81.1743 12.6041 80.7482 13.2007 80.5399 13.9204L74.9433 13.4659C75.2274 12.1401 75.7861 10.9943 76.6194 10.0284C77.4527 9.053 78.5276 8.30489 79.8438 7.78406C81.1696 7.25376 82.7037 6.98861 84.4461 6.98861C85.6582 6.98861 86.8183 7.13065 87.9262 7.41474C89.0437 7.69884 90.0332 8.13918 90.895 8.73577C91.7662 9.33236 92.4527 10.0994 92.9546 11.0369C93.4565 11.9649 93.7075 13.0776 93.7075 14.375V29.0909H87.9688V26.0653H87.7984C87.448 26.7471 86.9793 27.3485 86.3921 27.8693C85.805 28.3807 85.0995 28.7831 84.2757 29.0767C83.4518 29.3608 82.5001 29.5028 81.4205 29.5028ZM83.1535 25.3267C84.0437 25.3267 84.8296 25.1515 85.5115 24.8011C86.1933 24.4413 86.7283 23.9583 87.1166 23.3522C87.5048 22.7462 87.699 22.0596 87.699 21.2926V18.9772C87.5096 19.1004 87.2491 19.214 86.9177 19.3182C86.5957 19.4129 86.2312 19.5028 85.824 19.588C85.4168 19.6638 85.0096 19.7348 84.6024 19.8011C84.1952 19.8579 83.8258 19.91 83.4944 19.9574C82.7842 20.0615 82.1639 20.2272 81.6336 20.4545C81.1033 20.6818 80.6914 20.9896 80.3978 21.3778C80.1043 21.7566 79.9575 22.2301 79.9575 22.7983C79.9575 23.6221 80.2558 24.2519 80.8524 24.6875C81.4584 25.1136 82.2255 25.3267 83.1535 25.3267ZM104.453 16.4772V29.0909H98.4021V7.2727H104.169V11.1221H104.425C104.908 9.85319 105.717 8.8494 106.854 8.11077C107.99 7.36266 109.368 6.98861 110.987 6.98861C112.502 6.98861 113.823 7.32005 114.95 7.98293C116.077 8.6458 116.953 9.59277 117.578 10.8238C118.203 12.0454 118.516 13.5038 118.516 15.1988V29.0909H112.465V16.2784C112.474 14.9432 112.133 13.9015 111.442 13.1534C110.751 12.3958 109.799 12.017 108.587 12.017C107.772 12.017 107.053 12.1922 106.428 12.5426C105.812 12.893 105.329 13.4043 104.979 14.0767C104.638 14.7396 104.463 15.5397 104.453 16.4772ZM134.89 7.2727V11.8182H121.751V7.2727H134.89ZM124.734 2.04543H130.785V22.3863C130.785 22.945 130.87 23.3807 131.041 23.6932C131.211 23.9962 131.448 24.2093 131.751 24.3324C132.063 24.4555 132.423 24.517 132.83 24.517C133.114 24.517 133.399 24.4933 133.683 24.446C133.967 24.3892 134.185 24.3466 134.336 24.3182L135.288 28.821C134.985 28.9157 134.559 29.0246 134.009 29.1477C133.46 29.2803 132.792 29.3608 132.006 29.3892C130.548 29.446 129.27 29.2519 128.171 28.8068C127.082 28.3617 126.235 27.6704 125.629 26.7329C125.023 25.7954 124.724 24.6117 124.734 23.1818V2.04543ZM145.053 29.5028C143.661 29.5028 142.421 29.2613 141.332 28.7784C140.243 28.286 139.381 27.5615 138.747 26.6051C138.122 25.6392 137.809 24.4365 137.809 22.9971C137.809 21.785 138.032 20.767 138.477 19.9432C138.922 19.1193 139.528 18.4564 140.295 17.9545C141.062 17.4526 141.933 17.0738 142.908 16.8182C143.893 16.5625 144.926 16.3825 146.005 16.2784C147.274 16.1458 148.297 16.0227 149.073 15.9091C149.85 15.786 150.413 15.606 150.764 15.3693C151.114 15.1325 151.289 14.7822 151.289 14.3182V14.2329C151.289 13.3333 151.005 12.6373 150.437 12.1449C149.878 11.6524 149.083 11.4062 148.051 11.4062C146.961 11.4062 146.095 11.6477 145.451 12.1307C144.807 12.6041 144.381 13.2007 144.173 13.9204L138.576 13.4659C138.86 12.1401 139.419 10.9943 140.252 10.0284C141.086 9.053 142.16 8.30489 143.477 7.78406C144.802 7.25376 146.337 6.98861 148.079 6.98861C149.291 6.98861 150.451 7.13065 151.559 7.41474C152.676 7.69884 153.666 8.13918 154.528 8.73577C155.399 9.33236 156.086 10.0994 156.587 11.0369C157.089 11.9649 157.34 13.0776 157.34 14.375V29.0909H151.602V26.0653H151.431C151.081 26.7471 150.612 27.3485 150.025 27.8693C149.438 28.3807 148.732 28.7831 147.908 29.0767C147.085 29.3608 146.133 29.5028 145.053 29.5028ZM146.786 25.3267C147.676 25.3267 148.462 25.1515 149.144 24.8011C149.826 24.4413 150.361 23.9583 150.749 23.3522C151.138 22.7462 151.332 22.0596 151.332 21.2926V18.9772C151.142 19.1004 150.882 19.214 150.551 19.3182C150.229 19.4129 149.864 19.5028 149.457 19.588C149.05 19.6638 148.642 19.7348 148.235 19.8011C147.828 19.8579 147.459 19.91 147.127 19.9574C146.417 20.0615 145.797 20.2272 145.266 20.4545C144.736 20.6818 144.324 20.9896 144.031 21.3778C143.737 21.7566 143.59 22.2301 143.59 22.7983C143.59 23.6221 143.889 24.2519 144.485 24.6875C145.091 25.1136 145.858 25.3267 146.786 25.3267ZM162.035 29.0909V7.2727H167.901V11.0795H168.129C168.526 9.72535 169.194 8.70262 170.131 8.01134C171.069 7.31058 172.149 6.9602 173.37 6.9602C173.673 6.9602 174 6.97914 174.35 7.01702C174.701 7.0549 175.008 7.10698 175.274 7.17327V12.5426C174.989 12.4574 174.596 12.3816 174.095 12.3153C173.593 12.249 173.133 12.2159 172.717 12.2159C171.827 12.2159 171.031 12.41 170.33 12.7983C169.639 13.1771 169.09 13.7074 168.683 14.3892C168.285 15.071 168.086 15.857 168.086 16.7471V29.0909H162.035ZM183.999 29.5028C182.607 29.5028 181.366 29.2613 180.277 28.7784C179.188 28.286 178.326 27.5615 177.692 26.6051C177.067 25.6392 176.754 24.4365 176.754 22.9971C176.754 21.785 176.977 20.767 177.422 19.9432C177.867 19.1193 178.473 18.4564 179.24 17.9545C180.007 17.4526 180.878 17.0738 181.854 16.8182C182.839 16.5625 183.871 16.3825 184.95 16.2784C186.219 16.1458 187.242 16.0227 188.019 15.9091C188.795 15.786 189.359 15.606 189.709 15.3693C190.059 15.1325 190.234 14.7822 190.234 14.3182V14.2329C190.234 13.3333 189.95 12.6373 189.382 12.1449C188.823 11.6524 188.028 11.4062 186.996 11.4062C185.907 11.4062 185.04 11.6477 184.396 12.1307C183.752 12.6041 183.326 13.2007 183.118 13.9204L177.521 13.4659C177.805 12.1401 178.364 10.9943 179.198 10.0284C180.031 9.053 181.106 8.30489 182.422 7.78406C183.748 7.25376 185.282 6.98861 187.024 6.98861C188.236 6.98861 189.396 7.13065 190.504 7.41474C191.622 7.69884 192.611 8.13918 193.473 8.73577C194.344 9.33236 195.031 10.0994 195.533 11.0369C196.035 11.9649 196.286 13.0776 196.286 14.375V29.0909H190.547V26.0653H190.377C190.026 26.7471 189.557 27.3485 188.97 27.8693C188.383 28.3807 187.678 28.7831 186.854 29.0767C186.03 29.3608 185.078 29.5028 183.999 29.5028ZM185.732 25.3267C186.622 25.3267 187.408 25.1515 188.09 24.8011C188.771 24.4413 189.306 23.9583 189.695 23.3522C190.083 22.7462 190.277 22.0596 190.277 21.2926V18.9772C190.088 19.1004 189.827 19.214 189.496 19.3182C189.174 19.4129 188.809 19.5028 188.402 19.588C187.995 19.6638 187.588 19.7348 187.18 19.8011C186.773 19.8579 186.404 19.91 186.073 19.9574C185.362 20.0615 184.742 20.2272 184.212 20.4545C183.681 20.6818 183.27 20.9896 182.976 21.3778C182.682 21.7566 182.536 22.2301 182.536 22.7983C182.536 23.6221 182.834 24.2519 183.43 24.6875C184.037 25.1136 184.804 25.3267 185.732 25.3267Z" fill="black"/>
</svg>
